<?xml version="1.0" standalone="no"?>
<!DOCTYPE svg PUBLIC "-//W3C//DTD SVG 20010904//EN"
 "http://www.w3.org/TR/2001/REC-SVG-20010904/DTD/svg10.dtd">
<svg version="1.0" xmlns="http://www.w3.org/2000/svg"
 width="1024.000000pt" height="1024.000000pt" viewBox="0 0 1024.000000 1024.000000"
 preserveAspectRatio="xMidYMid meet">
<metadata>
Created by potrace 1.14, written by Peter Selinger 2001-2017
</metadata>
<g transform="translate(0.000000,1024.000000) scale(0.100000,-0.100000)"
fill="#000000" stroke="none">
<path d="M8370 8363 c-74 -12 -153 -46 -207 -90 -20 -15 -956 -947 -2080
-2071 -1124 -1124 -2049 -2042 -2054 -2040 -5 2 -447 440 -982 974 -1038 1037
-967 971 -1127 1044 -8 4 -58 6 -111 6 -132 -2 -188 -30 -324 -161 -268 -259
-579 -562 -594 -578 -44 -50 -55 -65 -76 -107 -12 -25 -27 -67 -34 -94 -14
-55 -13 -175 1 -221 5 -16 10 -34 11 -40 15 -70 66 -125 654 -710 635 -633
2306 -2293 2326 -2311 22 -19 102 -62 138 -73 52 -17 137 -20 200 -9 127 23
87 -13 1145 1042 542 539 1532 1527 2202 2194 669 667 1378 1373 1574 1569
372 371 400 405 426 513 14 58 8 237 -8 258 -2 1 -3 6 -4 10 -6 40 -67 122
-157 212 -249 248 -618 602 -650 624 -63 43 -192 71 -269 59z"/>
</g>
</svg>
